<?xml version="1.0" encoding="utf-8"?>
<!-- Generator: Adobe Illustrator 25.4.1, SVG Export Plug-In . SVG Version: 6.00 Build 0)  -->
<svg version="1.1" xmlns="http://www.w3.org/2000/svg" xmlns:xlink="http://www.w3.org/1999/xlink" x="0px" y="0px"
	 viewBox="0 0 3710 3710" style="enable-background:new 0 0 3710 3710;" xml:space="preserve">
<style type="text/css">
	.st0{display:none;}
	.st1{display:inline;}
	.st2{fill:#FFFFFF;}
	.st3{opacity:0.65;fill:#11A64A;}
	.st4{fill:#11A64A;}
	.st5{fill:#BDD0FB;}
	.st6{opacity:0.5;}
	.st7{fill:url(#SVGID_1_);}
	.st8{opacity:0.64;}
	.st9{opacity:0.57;fill:#FFFFFF;}
	.st10{opacity:0.72;}
	.st11{fill:#056336;}
	.st12{opacity:0.69;clip-path:url(#SVGID_00000052813466445237423950000017043521940601860498_);}
	.st13{fill:#4E9367;}
	.st14{clip-path:url(#SVGID_00000052813466445237423950000017043521940601860498_);}
	.st15{fill:#020202;}
	.st16{fill:url(#SVGID_00000015350887388145633360000002640236743402383517_);}
	.st17{fill:#708729;}
	.st18{fill:url(#SVGID_00000183211967830605262450000016347389526028192656_);}
	.st19{fill:url(#SVGID_00000168092989239584146270000007398525778261957771_);}
	.st20{fill:#626363;}
	.st21{fill:url(#SVGID_00000142898334079905064840000006990388494046914189_);}
	.st22{fill:url(#SVGID_00000014624884675168549330000004019692459167825599_);}
	.st23{fill:url(#SVGID_00000148648778097292218800000002282510642140780730_);}
	.st24{fill:url(#SVGID_00000067950826578619315680000017510634472976378519_);}
	.st25{fill:url(#SVGID_00000178892581451767778570000015347877367826215331_);}
	.st26{fill:url(#SVGID_00000114036403874180049690000005673021211031171504_);}
	.st27{fill:url(#SVGID_00000096037584977869566270000001220803590877321095_);}
	.st28{fill:url(#SVGID_00000159442088753790025370000003748535391341675709_);}
	.st29{fill:url(#SVGID_00000148651357411773720330000001803744963899639940_);}
	.st30{opacity:0.36;fill:#FFFFFF;}
</style>
<g id="Background" class="st0">
	<g class="st1">
		<g>
			<rect class="st2" width="3710" height="3710"/>
		</g>
	</g>
</g>
<g id="Illustration">
	<g>
		<path class="st3" d="M2930.52,2850.2c-56.97,59.97-110.87,98.65-153.46,129.21c-500.6,359.19-1092.95,254.49-1218.84,228.92
			c-185.9-37.76-545.24-110.74-805.04-416.26c-393.05-462.22-331.85-1190.44-26.97-1671.15c55.77-87.93,350.34-575.96,949.07-654.22
			c362.34-47.36,784.72,48.16,1090.59,304.43C3407.93,1309.04,3362.23,2395.72,2930.52,2850.2z"/>
		<g>
			<path class="st4" d="M1526.45,1680.02c-44.13-136.11-128.51-244.39-228.05-307.85c-88.98-56.73-153.39-145.37-177.69-247.95
				c-2.55-10.78-5.58-21.6-9.08-32.4c-53.07-163.69-196.39-263.88-320.12-223.76c-123.72,40.11-181,205.33-127.93,369.02
				c10.85,33.47,25.48,64.28,42.94,91.77c55.73,87.74,78,193.16,58.35,295.27c-17.55,91.26-11.97,193.91,21.11,295.95
				c49.34,152.19,149.02,269.6,263.93,328.45c43.47,22.26,82.72,52.27,115.31,88.59c54.15,60.36,130.09,88.53,199.55,66.01
				c74.93-24.29,121.35-100.78,124.16-189.83c1.59-50.39,13.07-99.81,32.01-146.57C1565.66,1956.35,1571.06,1817.63,1526.45,1680.02
				z"/>
			<path class="st5" d="M891.29,1028.15c51.24,102.94,99.13,207.45,145.92,312.46c11.71,26.25,23,52.68,34.37,79.07l17.05,39.6
				l16.72,39.74c11.05,26.54,22.46,52.92,33.2,79.58l32.24,79.98c20.81,53.59,42.08,107.01,61.89,160.99
				c9.94,26.97,20.41,53.75,29.81,80.93l28.56,81.38c36.98,108.89,71.25,218.76,99.89,330.14l-4.79,1.28l-24.6-82.52l-6.1-20.64
				l-6.62-20.49l-13.31-40.94l-13.23-40.96c-4.39-13.66-9.28-27.16-13.9-40.74c-9.41-27.11-18.61-54.3-28.2-81.34
				c-39.05-107.95-79.54-215.39-122.23-321.97c-21.76-53.13-43.05-106.44-65.18-159.42l-16.48-39.78l-16.82-39.64
				c-11.2-26.44-22.39-52.87-33.86-79.19c-22.48-52.84-45.33-105.52-68.62-158.01c-23.01-52.61-46.52-105.03-70.19-157.34
				L891.29,1028.15z"/>
			<g class="st6">
				<linearGradient id="SVGID_1_" gradientUnits="userSpaceOnUse" x1="694.3688" y1="1149.8114" x2="782.0753" y2="1149.8114">
					<stop  offset="0" style="stop-color:#DAE3FE"/>
					<stop  offset="1" style="stop-color:#E9EFFD"/>
				</linearGradient>
				<path class="st7" d="M777.58,1353.67c-1.2-0.09-2.35-0.71-3.1-1.77c-89.11-127.45-87.97-230.61-71.33-294.71
					c18.08-69.64,56.81-108.43,58.45-110.05c1.64-1.62,4.28-1.6,5.9,0.04c1.62,1.64,1.6,4.28-0.04,5.9
					c-0.39,0.38-38.92,39.08-56.34,106.63c-16.07,62.32-16.93,162.77,70.2,287.4c1.32,1.89,0.86,4.49-1.03,5.81
					C779.47,1353.51,778.51,1353.74,777.58,1353.67z"/>
			</g>
		</g>
		<g class="st8">
			<path class="st4" d="M1092.26,1986.72c-42.74-80.5-107.59-139.12-176.95-167.97c-62-25.79-112.17-74.29-138.77-135.95
				c-2.8-6.48-5.89-12.93-9.28-19.32c-51.41-96.81-152.25-143.88-225.24-105.12c-72.99,38.76-90.49,148.66-39.09,245.47
				c10.51,19.8,23.09,37.51,37.08,52.83c44.63,48.89,70.28,112.55,69.33,178.74c-0.85,59.16,14.05,122.91,46.09,183.26
				c47.79,90.01,123.23,152.67,201.7,176.94c29.68,9.18,57.59,23.68,82.02,42.87c40.6,31.89,91.27,41.21,132.25,19.45
				c44.21-23.47,64.77-76.54,56.63-132.69c-4.6-31.77-2.9-64.03,3.76-95.43C1147.5,2155.68,1135.48,2068.1,1092.26,1986.72z"/>
			<path class="st9" d="M622.26,1647.78c43.51,58.92,85.1,119.19,126.05,179.89c10.25,15.17,20.25,30.5,30.3,45.81l15.07,22.95
				l14.88,23.08c9.86,15.43,19.94,30.71,29.62,46.25l29.06,46.61c18.98,31.32,38.23,62.47,56.62,94.15
				c9.22,15.82,18.75,31.46,27.65,47.47l26.92,47.89c35.25,64.21,68.9,129.34,99.2,196.04l-2.86,1.33l-24.57-49.04l-6.11-12.27
				l-6.42-12.12l-12.88-24.21l-12.83-24.23c-4.26-8.08-8.83-16.01-13.22-24.02c-8.9-15.97-17.68-32-26.69-47.91
				c-36.44-63.4-73.71-126.32-112.28-188.46c-19.52-30.92-38.77-62.01-58.51-92.8l-14.74-23.13l-14.93-23.01
				c-9.95-15.35-19.89-30.69-29.99-45.94c-19.94-30.66-40.1-61.19-60.51-91.54c-20.25-30.46-40.79-60.74-61.41-90.95L622.26,1647.78
				z"/>
			<g class="st6">
				<path class="st2" d="M607.91,1859.68c-0.81,0.12-1.67-0.11-2.32-0.7c-78.45-70.68-93.48-139.09-92.28-184.04
					c1.3-48.83,20.99-80.42,21.82-81.74c0.84-1.32,2.59-1.71,3.91-0.88c1.32,0.84,1.72,2.59,0.88,3.91
					c-0.2,0.31-19.77,31.81-20.95,79.16c-1.09,43.68,13.7,110.26,90.41,179.38c1.16,1.05,1.26,2.84,0.21,4
					C609.13,1859.28,608.53,1859.59,607.91,1859.68z"/>
			</g>
		</g>
		<g>
			<path class="st4" d="M3094.44,1921.56c54.58-107.36,68.81-221.96,47.48-318.78c-19.06-86.56-4.65-177.6,41.79-253.21
				c4.88-7.95,9.5-16.19,13.84-24.71c65.64-129.12,40.16-273.8-56.92-323.14c-97.07-49.35-228.97,15.32-294.61,144.44
				c-13.42,26.4-23.03,53.45-28.99,80.2c-19.02,85.37-68.34,161.47-140.54,210.77c-64.52,44.06-122.08,108.63-163,189.12
				c-61.03,120.05-71.61,249.15-38.45,352.33c12.54,39.03,18,80.19,15.76,121.16c-3.72,68.09,24.55,129.88,79.05,157.59
				c58.79,29.89,131.65,11.74,186.11-39.74c30.82-29.13,66.93-51.82,105.88-68.51C2953.8,2109.68,3039.26,2030.1,3094.44,1921.56z"
				/>
			<path class="st5" d="M3104.79,1156.34c-30.7,91.78-64.31,182.51-98.86,272.89c-8.63,22.6-17.62,45.06-26.53,67.55l-13.38,33.73
				l-13.66,33.62c-9.19,22.38-18.08,44.88-27.53,67.15l-28.33,66.82c-19.45,44.31-38.53,88.78-58.81,132.73
				c-10.1,21.99-19.78,44.17-30.33,65.95l-31.34,65.48c-42.67,86.88-87.53,172.74-136.62,256.18l-3.6-2.07l34.37-63.82l8.62-15.93
				l8.23-16.15l16.39-32.32l16.45-32.28c5.5-10.75,10.61-21.7,15.93-32.54c10.5-21.75,21.18-43.42,31.54-65.24
				c40.89-87.55,80.62-175.64,118.54-264.54c18.62-44.59,37.62-89.02,55.93-133.74l13.83-33.5l13.55-33.62
				c9.05-22.41,18.09-44.81,26.91-67.31c18.02-44.85,35.72-89.82,53.06-134.94c17.57-45.03,34.73-90.23,51.73-135.47
				L3104.79,1156.34z"/>
		</g>
		<g class="st10">
			<path class="st4" d="M3101.29,2548.36c50.87-80.74,70.36-170.17,60.46-248.2c-8.85-69.75,9.09-140.58,51.24-196.85
				c4.43-5.91,8.68-12.08,12.72-18.49c61.18-97.1,51.43-213.22-21.78-259.35c-73.21-46.13-182.16-4.81-243.35,92.3
				c-12.51,19.86-22.05,40.5-28.69,61.19c-21.18,66-65.65,122.44-126.28,156.04c-54.18,30.03-104.35,76.75-142.49,137.29
				c-56.88,90.28-74.53,191.43-55.72,275.36c7.11,31.74,8.47,64.65,3.76,96.83c-7.84,53.49,10.08,104.37,51.19,130.27
				c44.34,27.94,103.26,18.99,150.02-17.64c26.46-20.72,56.65-35.97,88.65-46.27C2976.55,2686.51,3049.85,2629.99,3101.29,2548.36z"
				/>
			<path class="st9" d="M3164.47,1944.92c-30.87,70.2-63.97,139.36-97.79,208.17c-8.45,17.21-17.17,34.28-25.84,51.37l-13.01,25.64
				l-13.22,25.54c-8.88,16.99-17.52,34.1-26.59,50.99l-27.21,50.67c-18.57,33.55-36.85,67.25-56.04,100.46
				c-9.57,16.61-18.82,33.41-28.73,49.83l-29.49,49.39c-39.98,65.45-81.63,129.93-126.44,192.19l-2.7-1.9l31.76-47.85l7.96-11.94
				l7.67-12.14l15.29-24.31l15.33-24.27c5.12-8.08,9.95-16.35,14.94-24.52c9.87-16.4,19.87-32.72,29.63-49.19
				c38.62-66.11,76.37-132.73,112.75-200.12c17.93-33.83,36.15-67.51,53.84-101.47l13.34-25.43l13.13-25.54
				c8.76-17.02,17.53-34.05,26.12-51.16c17.47-34.08,34.71-68.29,51.66-102.63c17.13-34.26,33.94-68.68,50.64-103.14
				L3164.47,1944.92z"/>
		</g>
		<g>
			<g>
				<polygon class="st2" points="2230.75,1326.23 1563.2,1257.05 895.65,1335.28 895.65,2999.36 1563.2,2958.17 2230.75,3003.84 
					2897.47,2934.13 2897.47,1287.55 				"/>
				<polygon class="st11" points="1577.53,2920.23 943.27,2959.31 943.27,1380.69 1577.53,1306.48 				"/>
				<polygon class="st11" points="2211.79,2963.55 1577.53,2920.23 1577.53,1306.48 2211.79,1372.11 				"/>
				<polygon class="st11" points="2845.26,2897.43 2211.79,2963.55 2211.79,1372.11 2845.26,1335.41 				"/>
				<rect x="1563.17" y="1306.48" class="st5" width="14.36" height="1614.19"/>
				<polygon class="st5" points="2206.55,2963.55 2220.91,2962.6 2220.91,1370.64 2206.55,1370.64 				"/>
			</g>
			<g>
				<defs>
					<polygon id="SVGID_00000031198704700759690510000004194202011634230960_" points="2210.78,1369.99 1576.52,1304.36 
						942.26,1378.57 942.26,2957.19 1576.52,2918.11 2210.78,2961.43 2844.25,2895.31 2844.25,1333.29 					"/>
				</defs>
				<clipPath id="SVGID_00000121980672291783793120000011225850970320772267_">
					<use xlink:href="#SVGID_00000031198704700759690510000004194202011634230960_"  style="overflow:visible;"/>
				</clipPath>
				<g style="opacity:0.69;clip-path:url(#SVGID_00000121980672291783793120000011225850970320772267_);">
					<polygon class="st13" points="2395.42,1388.05 2559.86,1513.86 2447.78,1618.95 2315.68,1496.06 					"/>
					<polygon class="st13" points="1301.12,1639.01 1315.92,1492.86 1570.35,1546.97 1570.35,1741.84 					"/>
					<polygon class="st13" points="2687.96,2499.59 2820.72,2433.29 2838.69,2567.77 2722.65,2605.05 					"/>
					<polygon class="st13" points="1437.04,2606.6 1570.35,2675.17 1703.24,2653.2 1691.23,2562.34 1570.35,2534.38 					"/>
					<polygon class="st4" points="1301.12,1639.01 939.41,1766.37 947.13,1796.1 999.37,1777.71 1334.08,1883.55 1339.68,1859.57 
						1037.91,1764.14 1296.87,1672.97 1538.46,1858.47 1505.21,2126.16 1241.01,2148 1008.67,2512.78 1030.1,2531.28 
						1255.14,2177.98 1528.55,2155.38 1567.29,1843.39 					"/>
					<polygon class="st4" points="1188.23,2713.94 912.04,2441.38 929.3,2417.68 1205.48,2690.24 					"/>
					<polygon class="st4" points="2247.99,2442.32 2083.17,1969.86 2058.44,1981.55 2145.16,2230.12 1724.04,2380.86 
						1731.89,2410.56 2155.24,2259.01 2223.26,2454.01 					"/>
					<polygon class="st4" points="2600.07,2350.4 2519.83,2452.01 2361.34,2089.91 2342.31,2101.19 2504.32,2471.32 
						2504.81,2471.03 2443.01,2549.28 2462.65,2570.31 2619.72,2371.43 					"/>
					<path class="st4" d="M2503.56,1722.55l-15.49-25.3c-0.67,0.56-1.09,1.03-1.12,1.06c8.48-9.66,123.47-171.65,198.7-278.19
						l9.39-13.29l171.12,201.19l-18.97,21.86l-150.32-176.74c-16.52,23.38-52.46,74.18-88.46,124.84
						C2508.73,1718.25,2505.99,1720.54,2503.56,1722.55z"/>
					<polygon class="st4" points="2158.77,1887.22 2105.15,1673.55 2039.62,1478.78 1746.28,1499.08 1744.7,1468.07 
						2057.39,1446.43 2130.6,1664.17 2184.39,1878.51 					"/>
					<polygon class="st4" points="1315.59,1641.6 1294.3,1639.71 1305.41,1470.53 1572.51,1534.8 1568.19,1559.14 1324.85,1500.59 
											"/>
					<polygon class="st4" points="2444.43,1637.09 2431.11,1617.67 2542.2,1514.38 2388.28,1385.4 2400.75,1365.22 2577.52,1513.35 
											"/>
					<polygon class="st4" points="2875.2,2598.1 2698.14,1867.34 2672.45,1875.78 2806.09,2427.3 2681.08,2489.72 2689.5,2512.56 
						2809.61,2452.58 2824.01,2560.29 2730.48,2590.34 2736.16,2614.3 2843.08,2579.95 2849.52,2606.53 					"/>
					<path class="st4" d="M1574.92,2888.82l-392.7-181.87l9.87-28.87l373.28,172.88l106.26-172.99l-95.51,26.55l-162.69-88.12
						l11.26-28.17l154.27,83.55l122.8-34.14c11.82-3.29,21.54,9.62,15.12,20.08L1574.92,2888.82z"/>
					<polygon class="st4" points="2427.97,2555.27 2160.74,2891.98 1889.23,2598.15 1736.33,2373.47 1719.6,2388.91 1873,2614.32 
						1873.5,2615.06 2146.25,2910.23 2103.88,2963.63 2123.48,2984.71 2447.57,2576.35 					"/>
				</g>
				<g style="clip-path:url(#SVGID_00000121980672291783793120000011225850970320772267_);">
					<path class="st4" d="M1656.75,1873.92l-93.26-120.08c-209.01-85.77-447.06-174.44-631.72-184.63l1.14-27.93
						c188.62,10.41,430.1,100.56,641.44,187.37l2.87,1.18l97.35,125.33L1656.75,1873.92z"/>
					<path class="st4" d="M2829.73,2830.56c-203.6-145.5-433.88-305.65-593.88-367.59l-520.09,223.48l-8.32-26.23l527.94-226.85
						l3.97,1.51c162.63,61.75,396.5,224.32,602.95,371.85L2829.73,2830.56z"/>
					<polygon class="st4" points="1814.19,1773.66 1654.52,1313.51 1676.79,1303.04 1836.46,1763.19 					"/>
					<path class="st4" d="M2537.76,1901.04c-41.3-186.52-120.87-314.98-243.26-392.71l11.5-24.54
						c67.52,42.89,123.52,101.39,166.42,173.87c38.97,65.84,67.95,143.17,88.59,236.4L2537.76,1901.04z"/>
					<polygon class="st4" points="1290.95,2667.71 1270.91,2652.06 1506.86,2229.21 1526.91,2244.86 					"/>
					<polygon class="st4" points="2604.03,1916.92 1910.85,1884.75 1911.81,1856.81 2599.76,1888.74 2852.12,1768.3 
						2861.23,1794.17 					"/>
					<polygon class="st4" points="947.59,2829 938.95,2802.92 1568.69,2520.14 1692.42,2534.45 1690.04,2562.27 1572.01,2548.62 
											"/>
					<path class="st4" d="M1759.15,2261.37c-270.38-3.33-523.77-19.33-653.01-176.31l17.34-19.35
						c122.78,149.15,370.87,164.43,635.92,167.7L1759.15,2261.37z"/>
					<polygon class="st4" points="1735.43,2922.99 1678.91,2531.06 1679.77,2527.86 1842.56,1923.69 1915.53,1779.89 
						2204.28,1598.22 2396.89,1351.47 2414.67,1370.27 2219.3,1620.56 1932.81,1800.8 1864.65,1935.14 1703.55,2533.04 
						1759.11,2918.36 					"/>
					<polygon class="st4" points="2857.57,2892.96 2520.18,2182.24 1896.46,1916.24 1785.44,1885.41 1382.52,1849.96 
						937.62,2229.49 923.42,2206.93 1375.48,1821.3 1379.91,1821.69 1789.16,1857.7 1903.4,1889.42 1904.06,1889.7 2536.87,2159.57 
						2539.04,2164.14 2878.6,2879.43 					"/>
				</g>
			</g>
			<ellipse class="st4" cx="1853.61" cy="1848.92" rx="80.57" ry="80.49"/>
			<ellipse class="st11" cx="1853.61" cy="1848.92" rx="57.73" ry="57.68"/>
		</g>
		<g>
			<path class="st15" d="M952.15,1921.59c0,0-29.58,14.39-35.02,30.92c-4.36,13.26-37.08,14.97-40.31,41.06
				c-1.67,13.47-11.63,24.25-25.05,26.31c-33.41,5.12-84.9,22.47-93.14,80.48c-6.29,44.28,16.28,61.06,39.97,66.88
				c17.4,4.27,28.96,21.19,25.44,38.76c-3.38,16.85,1.66,36.32,30.84,51.72c65.41,34.51,130.72-81.76,130.72-81.76L999,1972.92
				L952.15,1921.59z"/>
			
				<linearGradient id="SVGID_00000036961976288481388260000005843464464547390641_" gradientUnits="userSpaceOnUse" x1="-2516.7778" y1="1590.0452" x2="-2354.6611" y2="1958.8969" gradientTransform="matrix(-0.9776 -0.2106 -0.2106 0.9776 -915.0133 -113.5247)">
				<stop  offset="0" style="stop-color:#FEBBBA"/>
				<stop  offset="1" style="stop-color:#FF928E"/>
			</linearGradient>
			<path style="fill:url(#SVGID_00000036961976288481388260000005843464464547390641_);" d="M1308.04,1873.46
				c0,0-130.59,206.56-285.88,246.46c0,0,30.26,86.18,53.61,96.04c0,0,191.05-159.41,240.15-313.15L1308.04,1873.46z"/>
			<path class="st17" d="M683.31,3194.61l-4.23,34.79c-0.8,6.6-6,11.82-12.61,12.57c-11.15,1.27-29.05,2.58-46.57,0.73
				c-7.69-0.81-12.68-8.6-10.34-15.96c4.27-13.43,12.08-33.59,23.34-45.46h38.6C678.64,3181.28,684.17,3187.52,683.31,3194.61z"/>
			
				<linearGradient id="SVGID_00000013158675752591089340000016678111820731407000_" gradientUnits="userSpaceOnUse" x1="-2163.2563" y1="3505.8887" x2="-2056.1731" y2="2254.3528" gradientTransform="matrix(-1 0 0 1 -1165.4333 0)">
				<stop  offset="0" style="stop-color:#FEBBBA"/>
				<stop  offset="1" style="stop-color:#FF928E"/>
			</linearGradient>
			<path style="fill:url(#SVGID_00000013158675752591089340000016678111820731407000_);" d="M985.62,2787.01l6.51,38.32
				c0,0-21.82,220.98-25.7,309.37c-0.61,13.86,2.98,27.55,10.25,39.36l37.94,61.6l-96.41-56.89l-1.92-11.77l15.78-21.7
				l-20.67-247.55c-1.21-14.54,1.79-29.13,8.64-42.01l19.94-37.46L985.62,2787.01z"/>
			<path class="st17" d="M1020.97,3244.6H990.2c-5.76,0-11.19-2.64-14.7-7.21c-9.59-12.46-29.46-36.78-38.97-37.41
				c-12.79-0.85-11.16,44.62-11.16,44.62h-7.17l-9.08-56.51c-2.29-14.22,4.79-28.3,17.55-34.96l0,0c0,0,2.92,21.62,18.78,31.19
				c15.85,9.56,64.52,43.82,64.52,43.82s5.96-0.85,12.5,0.33C1032.19,3230.23,1030.83,3244.6,1020.97,3244.6z"/>
			
				<linearGradient id="SVGID_00000030459878087838545640000005344772274953502396_" gradientUnits="userSpaceOnUse" x1="-1947.8518" y1="3524.511" x2="-1840.7404" y2="2272.6455" gradientTransform="matrix(-1 0 0 1 -1165.4333 0)">
				<stop  offset="0" style="stop-color:#FEBBBA"/>
				<stop  offset="1" style="stop-color:#FF928E"/>
			</linearGradient>
			<path style="fill:url(#SVGID_00000030459878087838545640000005344772274953502396_);" d="M853.57,2805.22
				c0,0-127.81,242.44-148.12,297.79c-20.32,55.35-27.43,101.53-27.71,105.9c-0.43,6.83-8.92,13.39-32.35,13.39
				c-12.09,0-18.01-4.85-20.91-9.54c-2.47-4-2.6-9.01-0.52-13.23c7.39-14.96,30.85-62.78,39.54-84.46
				c10.37-25.89,32.69-143.23,44.93-184.03c12.24-40.8,26.07-85.05,79.37-125.82C787.8,2805.22,824.39,2769.38,853.57,2805.22z"/>
			<path class="st17" d="M934.3,2407.97c32.97-139.7-50.55-218.71-50.55-218.71c52.7-50.58,148.71-73.6,148.71-73.6
				s91.62,66.98,80.75,119.41c-6.37,30.73-64.4,184.06-64.4,184.06S995.16,2444.52,934.3,2407.97z"/>
			<path class="st20" d="M861.21,2477.13c13.42-40.42,73.1-69.16,73.1-69.16c60.86,36.55,114.52,11.16,114.52,11.16
				s12.03,46,3.73,88.74c-8.31,42.75-60.42,317.47-60.42,317.47c-82.11,16.64-208.39-16.74-208.39-16.74
				C836.04,2715.74,847.79,2517.55,861.21,2477.13z"/>
			
				<linearGradient id="SVGID_00000183945402610176214670000012536987456286029220_" gradientUnits="userSpaceOnUse" x1="-2174.9998" y1="2272.248" x2="-2154.8845" y2="2125.0898" gradientTransform="matrix(-1 0 0 1 -1165.4333 0)">
				<stop  offset="0" style="stop-color:#FEBBBA"/>
				<stop  offset="1" style="stop-color:#FF928E"/>
			</linearGradient>
			<path style="fill:url(#SVGID_00000183945402610176214670000012536987456286029220_);" d="M972.57,2023.34l-26.8,120.4
				c-2.57,10.6,7.1,8.87,17.82,6.85c17.56-3.31,40.19-10.13,47.75-23.79c0.77-1.39,1.15-2.96,1.37-4.54l11.52-83.49
				c0.91-6.62-2.67-13.05-8.78-15.76l-22.22-9.85C984.68,2009.36,974.77,2014.24,972.57,2023.34z"/>
			<g>
				
					<linearGradient id="SVGID_00000038382503334926528890000016313493027773478054_" gradientUnits="userSpaceOnUse" x1="-2370.4185" y1="1767.4535" x2="-2194.9043" y2="1455.0975" gradientTransform="matrix(-0.9809 -0.1943 -0.1943 0.9809 -936.3432 -99.2406)">
					<stop  offset="0" style="stop-color:#FEBBBA"/>
					<stop  offset="1" style="stop-color:#FF928E"/>
				</linearGradient>
				<path style="fill:url(#SVGID_00000038382503334926528890000016313493027773478054_);" d="M1023.91,1913.58
					c0,0,28.54,19.32,40.8,68.51c12.26,49.19-7.67,66.84-28.09,65.76c-20.43-1.08-50.04-7.4-75.7-42.69
					C935.26,1969.87,986.52,1889.98,1023.91,1913.58z"/>
				<path class="st15" d="M986.79,1985.31c0,0-10.46-70.49,48.07-59.71l11.83,12.32c0,0,28.64-32.26-3.05-56.64
					c-31.7-24.39-75.69-18.14-100.03,26.25c-24.34,44.39-33.17,75.59-12.77,103.17c20.4,27.59,35.74,3.93,35.74,3.93
					s-9.36-23.88-1.59-34.12c7.76-10.24,17.78,5.96,17.78,5.96L986.79,1985.31z"/>
				
					<linearGradient id="SVGID_00000062183220595071489490000015608630478352082344_" gradientUnits="userSpaceOnUse" x1="-2333.0581" y1="1788.448" x2="-2157.5454" y2="1476.0942" gradientTransform="matrix(-0.9809 -0.1943 -0.1943 0.9809 -936.3432 -99.2406)">
					<stop  offset="0" style="stop-color:#FEBBBA"/>
					<stop  offset="1" style="stop-color:#FF928E"/>
				</linearGradient>
				<path style="fill:url(#SVGID_00000062183220595071489490000015608630478352082344_);" d="M978.79,1991.35
					c0,0-5.16-36.27-23.68-25.9c-18.52,10.37,6.67,33.88,16.78,41.88L978.79,1991.35z"/>
			</g>
			<g>
				
					<linearGradient id="SVGID_00000148635478780070180270000006132170305167105706_" gradientUnits="userSpaceOnUse" x1="-2548.8149" y1="1604.1268" x2="-2386.698" y2="1972.9794" gradientTransform="matrix(-0.9776 -0.2106 -0.2106 0.9776 -915.0133 -113.5247)">
					<stop  offset="0" style="stop-color:#FEBBBA"/>
					<stop  offset="1" style="stop-color:#FF928E"/>
				</linearGradient>
				<path style="fill:url(#SVGID_00000148635478780070180270000006132170305167105706_);" d="M1307.15,1915.98
					c0.4,4.26-15.45,7.21-20.49-10.96c1.39-7.89,3.85-42.42,9.89-47.79c32.21-28.58,89.63-60.72,89.63-60.72
					c6.42,9.81-2,16.26-2,16.26l-28.67,19.35c2.99,9.9,7.35,18.66,7.85,29.97c0.37,8.56-2.79,16.95-8.47,23.44
					c-5.71,6.52-13.39,14.94-20.31,21.33C1321.48,1918.95,1307.15,1915.98,1307.15,1915.98z"/>
				
					<linearGradient id="SVGID_00000059294281385964737580000003265055451370598577_" gradientUnits="userSpaceOnUse" x1="1304.1914" y1="1872.469" x2="1347.5553" y2="1872.469">
					<stop  offset="0" style="stop-color:#FEBBBA"/>
					<stop  offset="1" style="stop-color:#FF928E"/>
				</linearGradient>
				<path style="fill:url(#SVGID_00000059294281385964737580000003265055451370598577_);" d="M1322.58,1901.84l-4.09-1.68
					c0.58-1.42,14.33-34.82,20.96-41.75c2.56-2.67,3.79-4.97,3.68-6.84c-0.07-1.05-0.59-2.09-1.6-3.14l-23.35,12.48l-10.26,16.08
					l-3.73-2.38l10.89-17.05l27.04-14.46l1.14,0.93c2.71,2.21,4.11,4.59,4.28,7.26c0.2,3.19-1.4,6.52-4.9,10.17
					C1337.61,1866.72,1326.45,1892.39,1322.58,1901.84z"/>
			</g>
			
				<linearGradient id="SVGID_00000127726016851159521350000004168913556884848043_" gradientUnits="userSpaceOnUse" x1="587.5222" y1="2385.9692" x2="944.7551" y2="2385.9692">
				<stop  offset="0" style="stop-color:#FEBBBA"/>
				<stop  offset="1" style="stop-color:#FF928E"/>
			</linearGradient>
			<path style="fill:url(#SVGID_00000127726016851159521350000004168913556884848043_);" d="M883.75,2189.26
				c0,0-148.39,304.67-202.13,331.3c0,0-54.56,5.7-87.95,15.8c-8.4,2.54-8.12,14.47,0.35,16.78c23.25,6.34,61.78,11.64,97.09-7.52
				c0,0-18.97,28.43-7.9,39.5c0,0,25.29-30.02,34.77-39.5c8.35-8.35,160.31-174.02,224.19-273.93c5.16-8.07,1.58-32.06-2.01-40.95
				C931.92,2210.29,913.61,2177.64,883.75,2189.26z"/>
		</g>
		<g>
			
				<linearGradient id="SVGID_00000147203531689468215080000000026681398645049760_" gradientUnits="userSpaceOnUse" x1="1744.6678" y1="2519.0784" x2="2579.0786" y2="1316.5449">
				<stop  offset="0" style="stop-color:#FF928E"/>
				<stop  offset="1" style="stop-color:#FE7062"/>
			</linearGradient>
			<circle style="fill:url(#SVGID_00000147203531689468215080000000026681398645049760_);" cx="2375.55" cy="1609.86" r="65.07"/>
			<g>
				
					<linearGradient id="SVGID_00000096026421750686982310000006394232487234997889_" gradientUnits="userSpaceOnUse" x1="1608.4055" y1="1105.0061" x2="2490.2119" y2="1044.5394">
					<stop  offset="0" style="stop-color:#FF928E"/>
					<stop  offset="1" style="stop-color:#FE7062"/>
				</linearGradient>
				<path style="fill:url(#SVGID_00000096026421750686982310000006394232487234997889_);" d="M2703.47,891.38
					c0,123.76-186.41,439.51-283.51,595.26c-7.54,12.09-23.77,19.43-53.82,19.43c-14.24,0-8.64-7.37-16.18-19.46
					c-97.11-155.76-283.49-471.48-283.49-595.23c0-161.38,142.6-292.21,318.5-292.21C2560.87,599.17,2703.47,730,2703.47,891.38z"/>
				
					<linearGradient id="SVGID_00000150099128087693779880000015749248248446106809_" gradientUnits="userSpaceOnUse" x1="2254.2041" y1="1581.9805" x2="2420.4873" y2="549.0129">
					<stop  offset="0" style="stop-color:#FF928E"/>
					<stop  offset="1" style="stop-color:#FE7062"/>
				</linearGradient>
				<path style="fill:url(#SVGID_00000150099128087693779880000015749248248446106809_);" d="M2684.64,891.38
					c0,123.76-186.41,439.51-283.51,595.26c-7.54,12.09-20.77,19.43-35.01,19.43c-14.24-0.01-27.45-7.37-34.98-19.46
					c-97.11-155.76-283.49-471.48-283.49-595.23c0-161.38,142.6-292.21,318.5-292.21C2542.04,599.17,2684.64,730,2684.64,891.38z"/>
				
					<ellipse transform="matrix(0.7071 -0.7071 0.7071 0.7071 55.4986 1943.6205)" class="st30" cx="2373.91" cy="904.82" rx="194.39" ry="194.39"/>
				<circle class="st30" cx="2355.07" cy="885.71" r="141.34"/>
				<path class="st2" d="M2366.13,1151.37c-130.28,0-236.27-105.99-236.27-236.28c0-2.34,1.89-4.23,4.23-4.23s4.23,1.9,4.23,4.23
					c0,125.61,102.19,227.81,227.81,227.81s227.81-102.2,227.81-227.81s-102.2-227.81-227.81-227.81
					c-72.64,0-139.24,33.44-182.72,91.73c-1.4,1.87-4.05,2.26-5.92,0.86c-1.87-1.4-2.26-4.05-0.86-5.92
					c45.1-60.46,114.18-95.14,189.51-95.14c130.28,0,236.28,105.99,236.28,236.28C2602.41,1045.37,2496.42,1151.37,2366.13,1151.37z
					"/>
			</g>
		</g>
	</g>
</g>
</svg>
